<svg width="53" height="53" viewBox="0 0 53 53" fill="none" xmlns="http://www.w3.org/2000/svg">
<path d="M17.032 28.3427H12.1788L11.2759 29.6444C9.95917 31.8641 9.19922 34.4524 9.19922 37.2138C9.19922 43.3386 12.9012 48.598 18.1907 50.8854C18.9958 51.1412 19.8084 51.3519 20.6286 51.525L24.1876 49.1097V35.4908C24.1876 31.5405 20.9822 28.3352 17.032 28.3352V28.3427Z" fill="url(#paint0_linear_1_5058)"/>
<path d="M35.2329 1.8723C34.4956 1.45846 33.6905 1.16502 32.8703 0.946814L31.4633 0.578125L27.9043 2.45167V16.6123C27.9043 20.5626 31.1096 23.7679 35.0599 23.7679H39.913L40.8159 22.4662C42.1327 20.2465 42.8926 17.6582 42.8926 14.8968C42.8926 9.29875 39.8002 4.4155 35.2254 1.87982L35.2329 1.8723Z" fill="url(#paint1_linear_1_5058)"/>
<path d="M9.19879 37.2138C9.19879 34.4449 9.96627 31.8641 11.2755 29.6444L12.1784 28.3427L27.9041 5.69468L31.4631 0.570661C29.9206 0.247118 28.4609 0.0665357 26.8808 0.0138658C21.7944 -0.151668 16.693 1.16508 12.2386 3.95658C6.0386 7.73376 1.32089 14.5959 0.237394 22.5415C-1.49319 35.3779 6.41481 47.2361 18.1903 50.8854C12.9007 48.598 9.19879 43.3386 9.19879 37.2138Z" fill="url(#paint2_linear_1_5058)"/>
<path d="M33.8405 1.24048C39.1301 3.52033 42.8922 8.75722 42.8922 14.8895C42.8922 18.6065 41.6959 21.1873 39.9126 23.7606L31.2748 36.1982L20.6279 51.5251C27.4299 52.9623 34.2995 51.6154 39.8449 48.1392C46.1201 44.3169 50.8604 37.3569 51.8837 29.3511C53.4864 16.8909 45.8718 5.03271 33.8481 1.24048H33.8405Z" fill="url(#paint3_linear_1_5058)"/>
<defs>
<linearGradient id="paint0_linear_1_5058" x1="16.6934" y1="49.7342" x2="16.6934" y2="29.3058" gradientUnits="userSpaceOnUse">
<stop stop-color="white"/>
<stop offset="1" stop-color="#C1FF00"/>
</linearGradient>
<linearGradient id="paint1_linear_1_5058" x1="35.3985" y1="1.70676" x2="35.3985" y2="24.3698" gradientUnits="userSpaceOnUse">
<stop stop-color="white"/>
<stop offset="1" stop-color="#C1FF00"/>
</linearGradient>
<linearGradient id="paint2_linear_1_5058" x1="10.8842" y1="31.8791" x2="28.7092" y2="1.18013" gradientUnits="userSpaceOnUse">
<stop stop-color="white"/>
<stop offset="1" stop-color="#C1FF00"/>
</linearGradient>
<linearGradient id="paint3_linear_1_5058" x1="40.5973" y1="21.1346" x2="20.7935" y2="49.6064" gradientUnits="userSpaceOnUse">
<stop stop-color="white"/>
<stop offset="1" stop-color="#C1FF00"/>
</linearGradient>
</defs>
</svg>
